<svg xmlns="http://www.w3.org/2000/svg" width="687.203" height="169.56" viewBox="0 0 687.203 169.56">
  <g id="Layer_1" data-name="Layer 1" transform="translate(0 0)">
    <path id="Exclusion_1" data-name="Exclusion 1" d="M-157.169-630.4H-808l36.372-169.559H-120.8L-157.169-630.4Zm-597.547-67.111a19.136,19.136,0,0,0,4.518,15.767c3.585,4.085,9.188,7.257,16.653,9.427,8.049,2.34,18.32,3.526,30.53,3.526a146.972,146.972,0,0,0,20.432-1.362,104.64,104.64,0,0,0,17.535-3.944,69.332,69.332,0,0,0,14.21-6.31,44.611,44.611,0,0,0,10.458-8.46l-6.412,19.247h40.149l10.328-31.01H-564.2l-10.328,31.01h37.084l-.006.008h39.368l11.224-16.807h29.73l.024,16.807h77.308l10.551-31.675h9.639l11.946,31.675h74.18l11.224-16.807h29.73l.024,16.807h40.173l-.394-90.494h-58.655l-55.039,81.026L-321.868-718.1l46.134-42.012h-44.993l-30.789,29.73h-8.038l9.9-29.73h-40.173l-27.14,81.491-.355-81.491h-58.655l-55.45,81.631,27.174-81.581H-544.4l-10.328,31.01h-32.119l10.328-31.01h-40.148l-16.456,49.4a14.694,14.694,0,0,0-3.583-6.242,27.4,27.4,0,0,0-7.653-5.447,66.537,66.537,0,0,0-12.423-4.562,155.513,155.513,0,0,0-17.892-3.587,82.445,82.445,0,0,1-10.217-2.021c-2.419-.712-3.81-1.475-4.378-2.4a2.093,2.093,0,0,1-.151-1.849c.87-2.63,4.27-4.138,9.327-4.138,3.628,0,6.033.7,7.352,2.135a5.643,5.643,0,0,1,1.187,4.516H-626.5c1.317-5.574.363-10.452-2.838-14.5-3.294-4.163-8.9-7.383-16.668-9.568-7.721-2.172-17.395-3.274-28.753-3.274a131.77,131.77,0,0,0-24.73,2.175,80.2,80.2,0,0,0-19.1,6.008C-729.161-748.4-736.222-741.346-739-733a26.222,26.222,0,0,0-1.541,7.56,13.187,13.187,0,0,0,1.915,7.465c4.342,7.1,16.377,12.077,36.794,15.205,10.234,1.582,15.121,3.108,16.339,5.1a3.271,3.271,0,0,1,.007,2.927c-1.044,3.141-5.341,5.017-11.495,5.017-3.737,0-6.431-.827-8.007-2.458a6.913,6.913,0,0,1-1.722-5.317l.008-.016h-48.014Zm523.3-11.527H-248.3l16-23.917h1.609l-.731,23.916Zm-227.073,0h-16.88l16-23.917h1.609l-.731,23.916Z" transform="translate(808 799.961)"/>
  </g>
</svg>
