<svg id="Layer_1" data-name="Layer 1" xmlns="http://www.w3.org/2000/svg" width="687.203" height="169.559" viewBox="0 0 687.203 169.559">
  <path id="Path_237" data-name="Path 237" d="M650.831,169.559H0L36.372,0H687.2Z"/>
  <g id="Group_72" data-name="Group 72" transform="translate(53.078 38.367)">
    <path id="Path_238" data-name="Path 238" d="M112.861,110.828c-.123,3.637,1.305,7.775,9.729,7.775,6.4,0,10.493-2,11.494-5.016,1.043-3.136.706-5.394-16.347-8.03C76.8,99.284,76.809,86.616,80.569,75.327c5.427-16.306,27.611-28.6,64.246-28.6,33.514,0,52.439,9.655,48.26,27.34H148.017c.32-3.76-1.215-6.65-8.539-6.65-5.3,0-8.5,1.634-9.327,4.138-1,3.013,3.177,4.516,14.746,6.273,38.342,5.64,45.419,16.683,40.789,30.6-6.388,19.187-32.5,31.1-69.131,31.1-39.91,0-53.819-12.545-51.7-28.72h48.014Z" transform="translate(-64.648 -46.73)" fill="#f8e265"/>
    <path id="Path_239" data-name="Path 239" d="M226.474,48.6h40.148L256.293,79.61h32.119L298.741,48.6h40.148l-30.124,90.437H268.617l10.329-31.01H246.827L236.5,139.037H196.35Z" transform="translate(-88.218 -47.065)" fill="#f8e265"/>
    <path id="Path_240" data-name="Path 240" d="M391,48.54h58.654l.394,90.494H409.876l-.025-16.807h-29.73L368.9,139.034H329.53L391,48.54Zm17.488,51.068.731-23.917H407.61l-16,23.917H408.48Z" transform="translate(-112.053 -47.054)" fill="#f8e265"/>
    <path id="Path_241" data-name="Path 241" d="M502.76,48.54h40.173l-9.9,29.73h8.038l30.789-29.73H616.85L570.717,90.552l19.2,48.482H544.928l-11.946-31.675h-9.639l-10.55,31.675H472.62L502.76,48.54Z" transform="translate(-137.662 -47.054)" fill="#f8e265"/>
    <path id="Path_242" data-name="Path 242" d="M664.569,48.54h58.646l.394,90.494H683.436l-.025-16.807h-29.73l-11.223,16.807H603.09L664.56,48.54ZM684.52,99.608l.731-23.917h-1.609l-16,23.917h16.872Z" transform="translate(-161.012 -47.054)" fill="#f8e265"/>
  </g>
</svg>
